<mxfile host="app.diagrams.net" modified="2023-03-09T07:43:33.243Z" agent="5.0 (Windows NT 10.0; Win64; x64) AppleWebKit/537.36 (KHTML, like Gecko) Chrome/110.0.0.0 Safari/537.36" etag="-lptAvY35M1zIpbtsdeX" version="21.0.4" type="github">
  <diagram name="第 1 页" id="qdei1Weci3ug7f8LpCLz">
    <mxGraphModel dx="1792" dy="1109" grid="0" gridSize="10" guides="1" tooltips="1" connect="1" arrows="1" fold="1" page="0" pageScale="1" pageWidth="1654" pageHeight="2336" math="0" shadow="0">
      <root>
        <mxCell id="0" />
        <mxCell id="1" parent="0" />
        <mxCell id="sID7WBIMq1iuH66nljdL-5" style="edgeStyle=none;curved=1;rounded=0;sketch=1;hachureGap=4;jiggle=2;curveFitting=1;orthogonalLoop=1;jettySize=auto;html=1;fontFamily=Architects Daughter;fontSource=https%3A%2F%2Ffonts.googleapis.com%2Fcss%3Ffamily%3DArchitects%2BDaughter;fontSize=16;endArrow=open;startSize=14;endSize=14;sourcePerimeterSpacing=8;targetPerimeterSpacing=8;" parent="1" source="sID7WBIMq1iuH66nljdL-1" target="sID7WBIMq1iuH66nljdL-4" edge="1">
          <mxGeometry relative="1" as="geometry" />
        </mxCell>
        <mxCell id="sID7WBIMq1iuH66nljdL-1" value="話題設定" style="rounded=0;whiteSpace=wrap;html=1;sketch=1;hachureGap=4;jiggle=2;curveFitting=1;fontFamily=Architects Daughter;fontSource=https%3A%2F%2Ffonts.googleapis.com%2Fcss%3Ffamily%3DArchitects%2BDaughter;fontSize=20;" parent="1" vertex="1">
          <mxGeometry x="-186" y="26" width="160" height="80" as="geometry" />
        </mxCell>
        <mxCell id="sID7WBIMq1iuH66nljdL-7" style="edgeStyle=none;curved=1;rounded=0;sketch=1;hachureGap=4;jiggle=2;curveFitting=1;orthogonalLoop=1;jettySize=auto;html=1;fontFamily=Architects Daughter;fontSource=https%3A%2F%2Ffonts.googleapis.com%2Fcss%3Ffamily%3DArchitects%2BDaughter;fontSize=16;endArrow=open;startSize=14;endSize=14;sourcePerimeterSpacing=8;targetPerimeterSpacing=8;" parent="1" source="sID7WBIMq1iuH66nljdL-4" target="sID7WBIMq1iuH66nljdL-6" edge="1">
          <mxGeometry relative="1" as="geometry" />
        </mxCell>
        <mxCell id="sID7WBIMq1iuH66nljdL-10" style="edgeStyle=none;curved=1;rounded=0;sketch=1;hachureGap=4;jiggle=2;curveFitting=1;orthogonalLoop=1;jettySize=auto;html=1;exitX=1;exitY=0.75;exitDx=0;exitDy=0;fontFamily=Architects Daughter;fontSource=https%3A%2F%2Ffonts.googleapis.com%2Fcss%3Ffamily%3DArchitects%2BDaughter;fontSize=16;endArrow=open;startSize=14;endSize=14;sourcePerimeterSpacing=8;targetPerimeterSpacing=8;" parent="1" source="sID7WBIMq1iuH66nljdL-4" target="sID7WBIMq1iuH66nljdL-8" edge="1">
          <mxGeometry relative="1" as="geometry" />
        </mxCell>
        <mxCell id="sID7WBIMq1iuH66nljdL-4" value="關鍵字設定" style="rounded=0;whiteSpace=wrap;html=1;sketch=1;hachureGap=4;jiggle=2;curveFitting=1;fontFamily=Architects Daughter;fontSource=https%3A%2F%2Ffonts.googleapis.com%2Fcss%3Ffamily%3DArchitects%2BDaughter;fontSize=20;" parent="1" vertex="1">
          <mxGeometry x="-186" y="199.5" width="160" height="80" as="geometry" />
        </mxCell>
        <mxCell id="sID7WBIMq1iuH66nljdL-11" style="edgeStyle=none;curved=1;rounded=0;sketch=1;hachureGap=4;jiggle=2;curveFitting=1;orthogonalLoop=1;jettySize=auto;html=1;exitX=1;exitY=0.5;exitDx=0;exitDy=0;fontFamily=Architects Daughter;fontSource=https%3A%2F%2Ffonts.googleapis.com%2Fcss%3Ffamily%3DArchitects%2BDaughter;fontSize=16;endArrow=open;startSize=14;endSize=14;sourcePerimeterSpacing=8;targetPerimeterSpacing=8;" parent="1" source="sID7WBIMq1iuH66nljdL-6" target="sID7WBIMq1iuH66nljdL-8" edge="1">
          <mxGeometry relative="1" as="geometry" />
        </mxCell>
        <mxCell id="sID7WBIMq1iuH66nljdL-12" style="edgeStyle=none;curved=1;rounded=0;sketch=1;hachureGap=4;jiggle=2;curveFitting=1;orthogonalLoop=1;jettySize=auto;html=1;exitX=1;exitY=0.75;exitDx=0;exitDy=0;entryX=0.01;entryY=0.647;entryDx=0;entryDy=0;entryPerimeter=0;fontFamily=Architects Daughter;fontSource=https%3A%2F%2Ffonts.googleapis.com%2Fcss%3Ffamily%3DArchitects%2BDaughter;fontSize=16;endArrow=open;startSize=14;endSize=14;sourcePerimeterSpacing=8;targetPerimeterSpacing=8;" parent="1" source="sID7WBIMq1iuH66nljdL-6" target="sID7WBIMq1iuH66nljdL-9" edge="1">
          <mxGeometry relative="1" as="geometry" />
        </mxCell>
        <mxCell id="sID7WBIMq1iuH66nljdL-6" value="媒體設定" style="rounded=0;whiteSpace=wrap;html=1;sketch=1;hachureGap=4;jiggle=2;curveFitting=1;fontFamily=Architects Daughter;fontSource=https%3A%2F%2Ffonts.googleapis.com%2Fcss%3Ffamily%3DArchitects%2BDaughter;fontSize=20;" parent="1" vertex="1">
          <mxGeometry x="-190" y="373" width="160" height="80" as="geometry" />
        </mxCell>
        <mxCell id="sID7WBIMq1iuH66nljdL-8" value="保存到subject-api" style="rounded=0;whiteSpace=wrap;html=1;sketch=1;hachureGap=4;jiggle=2;curveFitting=1;fontFamily=Architects Daughter;fontSource=https%3A%2F%2Ffonts.googleapis.com%2Fcss%3Ffamily%3DArchitects%2BDaughter;fontSize=20;" parent="1" vertex="1">
          <mxGeometry x="257" y="256" width="193" height="85" as="geometry" />
        </mxCell>
        <mxCell id="sID7WBIMq1iuH66nljdL-9" value="保存到coding-api" style="rounded=0;whiteSpace=wrap;html=1;sketch=1;hachureGap=4;jiggle=2;curveFitting=1;fontFamily=Architects Daughter;fontSource=https%3A%2F%2Ffonts.googleapis.com%2Fcss%3Ffamily%3DArchitects%2BDaughter;fontSize=20;" parent="1" vertex="1">
          <mxGeometry x="257" y="373" width="193" height="85" as="geometry" />
        </mxCell>
        <mxCell id="sID7WBIMq1iuH66nljdL-15" style="edgeStyle=none;curved=1;rounded=0;sketch=1;hachureGap=4;jiggle=2;curveFitting=1;orthogonalLoop=1;jettySize=auto;html=1;exitX=0.5;exitY=0;exitDx=0;exitDy=0;fontFamily=Architects Daughter;fontSource=https%3A%2F%2Ffonts.googleapis.com%2Fcss%3Ffamily%3DArchitects%2BDaughter;fontSize=16;endArrow=open;startSize=14;endSize=14;sourcePerimeterSpacing=8;targetPerimeterSpacing=8;entryX=-0.011;entryY=0.657;entryDx=0;entryDy=0;entryPerimeter=0;" parent="1" source="sID7WBIMq1iuH66nljdL-13" target="sID7WBIMq1iuH66nljdL-9" edge="1">
          <mxGeometry relative="1" as="geometry">
            <mxPoint x="122" y="424" as="targetPoint" />
          </mxGeometry>
        </mxCell>
        <mxCell id="DSp5H4f-qUNdKnS8bJwu-1" value="判斷是否有刪除媒體類型？" style="edgeLabel;html=1;align=center;verticalAlign=middle;resizable=0;points=[];fontSize=20;fontFamily=Architects Daughter;" parent="sID7WBIMq1iuH66nljdL-15" vertex="1" connectable="0">
          <mxGeometry x="-0.0996" y="586" relative="1" as="geometry">
            <mxPoint x="354" y="466" as="offset" />
          </mxGeometry>
        </mxCell>
        <mxCell id="sID7WBIMq1iuH66nljdL-13" value="刪除數據庫&lt;br&gt;刪除column字段&lt;br&gt;刪除coding-api已存在的數據" style="rounded=0;whiteSpace=wrap;html=1;sketch=1;hachureGap=4;jiggle=2;curveFitting=1;fontFamily=Architects Daughter;fontSource=https%3A%2F%2Ffonts.googleapis.com%2Fcss%3Ffamily%3DArchitects%2BDaughter;fontSize=20;" parent="1" vertex="1">
          <mxGeometry x="-55" y="585" width="212" height="127" as="geometry" />
        </mxCell>
        <mxCell id="DSp5H4f-qUNdKnS8bJwu-5" style="edgeStyle=none;curved=1;rounded=0;sketch=1;hachureGap=4;jiggle=2;curveFitting=1;orthogonalLoop=1;jettySize=auto;html=1;entryX=1.009;entryY=0.685;entryDx=0;entryDy=0;entryPerimeter=0;fontFamily=Architects Daughter;fontSource=https%3A%2F%2Ffonts.googleapis.com%2Fcss%3Ffamily%3DArchitects%2BDaughter;fontSize=18;endArrow=open;startSize=14;endSize=14;sourcePerimeterSpacing=8;targetPerimeterSpacing=8;dashed=1;" parent="1" source="DSp5H4f-qUNdKnS8bJwu-3" target="sID7WBIMq1iuH66nljdL-13" edge="1">
          <mxGeometry relative="1" as="geometry" />
        </mxCell>
        <mxCell id="DSp5H4f-qUNdKnS8bJwu-3" value="&lt;p style=&quot;line-height: 150%;&quot;&gt;數據庫的刪除：&lt;br&gt;對比subject中的queries，篩選出coding中被移除的數據庫，調用deltaAction: remove進行刪除&lt;br&gt;column字段刪除：&lt;br&gt;上一步需要進行刪除的mediatype，需要找出特有的column，調用deltaAction: remove進行刪除&lt;br&gt;數據刪除：&lt;br&gt;找出需要刪除是數據庫name，調用刪除接口進行刪除（這裡可能涉及進度展示）&lt;br&gt;&lt;/p&gt;" style="shape=note;whiteSpace=wrap;html=1;backgroundOutline=1;fontColor=#000000;darkOpacity=0.05;fillColor=#FFF9B2;strokeColor=none;fillStyle=solid;direction=west;gradientDirection=north;gradientColor=#FFF2A1;shadow=1;size=20;pointerEvents=1;sketch=1;hachureGap=4;jiggle=2;curveFitting=1;fontFamily=Architects Daughter;fontSource=https%3A%2F%2Ffonts.googleapis.com%2Fcss%3Ffamily%3DArchitects%2BDaughter;fontSize=18;align=left;horizontal=1;labelPosition=center;verticalLabelPosition=middle;verticalAlign=top;" parent="1" vertex="1">
          <mxGeometry x="288" y="513" width="393" height="294" as="geometry" />
        </mxCell>
        <mxCell id="AMLBZgQ1Sogi_aw5Nqmk-7" value="" style="edgeStyle=none;curved=1;rounded=0;sketch=1;hachureGap=4;jiggle=2;curveFitting=1;orthogonalLoop=1;jettySize=auto;html=1;fontFamily=Architects Daughter;fontSource=https%3A%2F%2Ffonts.googleapis.com%2Fcss%3Ffamily%3DArchitects%2BDaughter;fontSize=16;endArrow=open;startSize=14;endSize=14;sourcePerimeterSpacing=8;targetPerimeterSpacing=8;" edge="1" parent="1" source="AMLBZgQ1Sogi_aw5Nqmk-2" target="AMLBZgQ1Sogi_aw5Nqmk-6">
          <mxGeometry relative="1" as="geometry" />
        </mxCell>
        <mxCell id="AMLBZgQ1Sogi_aw5Nqmk-14" value="否" style="edgeLabel;html=1;align=center;verticalAlign=middle;resizable=0;points=[];fontSize=20;fontFamily=Architects Daughter;" vertex="1" connectable="0" parent="AMLBZgQ1Sogi_aw5Nqmk-7">
          <mxGeometry x="-0.2982" y="-2" relative="1" as="geometry">
            <mxPoint as="offset" />
          </mxGeometry>
        </mxCell>
        <mxCell id="AMLBZgQ1Sogi_aw5Nqmk-10" value="" style="edgeStyle=none;curved=1;rounded=0;sketch=1;hachureGap=4;jiggle=2;curveFitting=1;orthogonalLoop=1;jettySize=auto;html=1;fontFamily=Architects Daughter;fontSource=https%3A%2F%2Ffonts.googleapis.com%2Fcss%3Ffamily%3DArchitects%2BDaughter;fontSize=16;endArrow=open;startSize=14;endSize=14;sourcePerimeterSpacing=8;targetPerimeterSpacing=8;" edge="1" parent="1" source="AMLBZgQ1Sogi_aw5Nqmk-2" target="AMLBZgQ1Sogi_aw5Nqmk-9">
          <mxGeometry relative="1" as="geometry" />
        </mxCell>
        <mxCell id="AMLBZgQ1Sogi_aw5Nqmk-15" value="是" style="edgeLabel;html=1;align=center;verticalAlign=middle;resizable=0;points=[];fontSize=20;fontFamily=Architects Daughter;" vertex="1" connectable="0" parent="AMLBZgQ1Sogi_aw5Nqmk-10">
          <mxGeometry x="-0.1923" y="2" relative="1" as="geometry">
            <mxPoint as="offset" />
          </mxGeometry>
        </mxCell>
        <mxCell id="AMLBZgQ1Sogi_aw5Nqmk-2" value="是否刪除了媒體類型" style="rhombus;whiteSpace=wrap;html=1;sketch=1;hachureGap=4;jiggle=2;curveFitting=1;fontFamily=Architects Daughter;fontSource=https%3A%2F%2Ffonts.googleapis.com%2Fcss%3Ffamily%3DArchitects%2BDaughter;fontSize=20;" vertex="1" parent="1">
          <mxGeometry x="720" y="-161" width="140" height="110" as="geometry" />
        </mxCell>
        <mxCell id="AMLBZgQ1Sogi_aw5Nqmk-6" value="調用接口進行數據更新" style="whiteSpace=wrap;html=1;fontSize=20;fontFamily=Architects Daughter;sketch=1;hachureGap=4;jiggle=2;curveFitting=1;fontSource=https%3A%2F%2Ffonts.googleapis.com%2Fcss%3Ffamily%3DArchitects%2BDaughter;" vertex="1" parent="1">
          <mxGeometry x="990" y="-136" width="120" height="60" as="geometry" />
        </mxCell>
        <mxCell id="AMLBZgQ1Sogi_aw5Nqmk-12" style="edgeStyle=none;curved=1;rounded=0;sketch=1;hachureGap=4;jiggle=2;curveFitting=1;orthogonalLoop=1;jettySize=auto;html=1;exitX=1;exitY=0.5;exitDx=0;exitDy=0;entryX=0.5;entryY=1;entryDx=0;entryDy=0;fontFamily=Architects Daughter;fontSource=https%3A%2F%2Ffonts.googleapis.com%2Fcss%3Ffamily%3DArchitects%2BDaughter;fontSize=16;endArrow=open;startSize=14;endSize=14;sourcePerimeterSpacing=8;targetPerimeterSpacing=8;" edge="1" parent="1" source="AMLBZgQ1Sogi_aw5Nqmk-9" target="AMLBZgQ1Sogi_aw5Nqmk-6">
          <mxGeometry relative="1" as="geometry" />
        </mxCell>
        <mxCell id="AMLBZgQ1Sogi_aw5Nqmk-13" value="是" style="edgeLabel;html=1;align=center;verticalAlign=middle;resizable=0;points=[];fontSize=20;fontFamily=Architects Daughter;" vertex="1" connectable="0" parent="AMLBZgQ1Sogi_aw5Nqmk-12">
          <mxGeometry x="-0.1637" y="2" relative="1" as="geometry">
            <mxPoint as="offset" />
          </mxGeometry>
        </mxCell>
        <mxCell id="AMLBZgQ1Sogi_aw5Nqmk-17" value="" style="edgeStyle=none;curved=1;rounded=0;sketch=1;hachureGap=4;jiggle=2;curveFitting=1;orthogonalLoop=1;jettySize=auto;html=1;fontFamily=Architects Daughter;fontSource=https%3A%2F%2Ffonts.googleapis.com%2Fcss%3Ffamily%3DArchitects%2BDaughter;fontSize=16;endArrow=open;startSize=14;endSize=14;sourcePerimeterSpacing=8;targetPerimeterSpacing=8;" edge="1" parent="1" source="AMLBZgQ1Sogi_aw5Nqmk-9" target="AMLBZgQ1Sogi_aw5Nqmk-16">
          <mxGeometry relative="1" as="geometry" />
        </mxCell>
        <mxCell id="AMLBZgQ1Sogi_aw5Nqmk-18" value="否" style="edgeLabel;html=1;align=center;verticalAlign=middle;resizable=0;points=[];fontSize=20;fontFamily=Architects Daughter;" vertex="1" connectable="0" parent="AMLBZgQ1Sogi_aw5Nqmk-17">
          <mxGeometry x="-0.1858" y="1" relative="1" as="geometry">
            <mxPoint as="offset" />
          </mxGeometry>
        </mxCell>
        <mxCell id="AMLBZgQ1Sogi_aw5Nqmk-9" value="彈出提示框，是否確認操作" style="rhombus;whiteSpace=wrap;html=1;sketch=1;hachureGap=4;jiggle=2;curveFitting=1;fontFamily=Architects Daughter;fontSource=https%3A%2F%2Ffonts.googleapis.com%2Fcss%3Ffamily%3DArchitects%2BDaughter;fontSize=20;" vertex="1" parent="1">
          <mxGeometry x="720" y="69" width="140" height="110" as="geometry" />
        </mxCell>
        <mxCell id="AMLBZgQ1Sogi_aw5Nqmk-16" value="取消操作" style="whiteSpace=wrap;html=1;fontSize=20;fontFamily=Architects Daughter;sketch=1;hachureGap=4;jiggle=2;curveFitting=1;fontSource=https%3A%2F%2Ffonts.googleapis.com%2Fcss%3Ffamily%3DArchitects%2BDaughter;" vertex="1" parent="1">
          <mxGeometry x="471" y="94" width="120" height="60" as="geometry" />
        </mxCell>
        <mxCell id="AMLBZgQ1Sogi_aw5Nqmk-20" style="edgeStyle=none;curved=1;rounded=0;sketch=1;hachureGap=4;jiggle=2;curveFitting=1;orthogonalLoop=1;jettySize=auto;html=1;exitX=0;exitY=0.5;exitDx=0;exitDy=0;fontFamily=Architects Daughter;fontSource=https%3A%2F%2Ffonts.googleapis.com%2Fcss%3Ffamily%3DArchitects%2BDaughter;fontSize=16;endArrow=none;startSize=14;endSize=14;sourcePerimeterSpacing=8;targetPerimeterSpacing=8;dashed=1;endFill=0;" edge="1" parent="1" source="AMLBZgQ1Sogi_aw5Nqmk-19" target="AMLBZgQ1Sogi_aw5Nqmk-9">
          <mxGeometry relative="1" as="geometry" />
        </mxCell>
        <mxCell id="AMLBZgQ1Sogi_aw5Nqmk-19" value="繼續操作將會刪除 X 數據庫，對應數據將被清空，是否繼續？" style="rounded=0;whiteSpace=wrap;html=1;sketch=1;hachureGap=4;jiggle=2;curveFitting=1;fontFamily=Architects Daughter;fontSource=https%3A%2F%2Ffonts.googleapis.com%2Fcss%3Ffamily%3DArchitects%2BDaughter;fontSize=20;dashed=1;" vertex="1" parent="1">
          <mxGeometry x="927" y="162.5" width="217" height="126" as="geometry" />
        </mxCell>
      </root>
    </mxGraphModel>
  </diagram>
</mxfile>
